HIERARCHY
ROOT Hips
{
	OFFSET 0.000000 0.000000 0.000000
	CHANNELS 6 Xposition Yposition Zposition Zrotation Yrotation Xrotation 
	JOINT LHipJoint
	{
		OFFSET 0.000000 0.000000 0.000000
		CHANNELS 3 Zrotation Yrotation Xrotation
		JOINT LeftUpLeg
		{
			OFFSET 1.363060 -1.794630 0.839290
			CHANNELS 3 Zrotation Yrotation Xrotation
			JOINT LeftLeg
			{
				OFFSET 2.448110 -6.726130 0.000000
				CHANNELS 3 Zrotation Yrotation Xrotation
				JOINT LeftFoot
				{
					OFFSET 2.562200 -7.039590 0.000000
					CHANNELS 3 Zrotation Yrotation Xrotation
					JOINT LeftToeBase
					{
						OFFSET 0.157640 -0.433110 2.322550
						CHANNELS 3 Zrotation Yrotation Xrotation
						End Site
						{
							OFFSET 0.000000 0.000000 0.000000
						}
					}
				}
			}
		}
	}
	JOINT RHipJoint
	{
		OFFSET 0.000000 0.000000 0.000000
		CHANNELS 3 Zrotation Yrotation Xrotation
		JOINT RightUpLeg
		{
			OFFSET -1.305520 -1.794630 0.839290
			CHANNELS 3 Zrotation Yrotation Xrotation
			JOINT RightLeg
			{
				OFFSET -2.542530 -6.985550 0.000000
				CHANNELS 3 Zrotation Yrotation Xrotation
				JOINT RightFoot
				{
					OFFSET -2.568260 -7.056230 0.000000
					CHANNELS 3 Zrotation Yrotation Xrotation
					JOINT RightToeBase
					{
						OFFSET -0.164730 -0.452590 2.363150
						CHANNELS 3 Zrotation Yrotation Xrotation
						End Site
						{
							OFFSET 0.000000 0.000000 0.000000
						}
					}
				}
			}
		}
	}
	JOINT LowerBack
	{
		OFFSET 0.000000 0.000000 0.000000
		CHANNELS 3 Zrotation Yrotation Xrotation
		JOINT Spine
		{
			OFFSET 0.028270 2.035590 -0.193380
			CHANNELS 3 Zrotation Yrotation Xrotation
			JOINT Spine1
			{
				OFFSET 0.056720 2.048850 -0.042750
				CHANNELS 3 Zrotation Yrotation Xrotation
				JOINT Neck
				{
					OFFSET 0.000000 0.000000 0.000000
					CHANNELS 3 Zrotation Yrotation Xrotation
					JOINT Neck1
					{
						OFFSET -0.054170 1.746240 0.172020
						CHANNELS 3 Zrotation Yrotation Xrotation
						JOINT Head
						{
							OFFSET 0.104070 1.761360 -0.123970
							CHANNELS 3 Zrotation Yrotation Xrotation
							End Site
							{
								OFFSET 0.000000 0.000000 0.000000
							}
						}
					}
				}
				JOINT LeftShoulder
				{
					OFFSET 0.000000 0.000000 0.000000
					CHANNELS 3 Zrotation Yrotation Xrotation
					JOINT LeftArm
					{
						OFFSET 3.362410 1.200890 -0.311210
						CHANNELS 3 Zrotation Yrotation Xrotation
						JOINT LeftForeArm
						{
							OFFSET 4.983000 -0.000000 -0.000000
							CHANNELS 3 Zrotation Yrotation Xrotation
							JOINT LeftHand
							{
								OFFSET 3.483560 -0.000000 -0.000000
								CHANNELS 3 Zrotation Yrotation Xrotation
								JOINT LeftFingerBase
								{
									OFFSET 0.000000 0.000000 0.000000
									CHANNELS 3 Zrotation Yrotation Xrotation
									JOINT LeftHandIndex1
									{
										OFFSET 0.715260 -0.000000 -0.000000
										CHANNELS 3 Zrotation Yrotation Xrotation
										End Site
										{
											OFFSET 0.000000 0.000000 0.000000
										}
									}
								}
								JOINT LThumb
								{
									OFFSET 0.000000 0.000000 0.000000
									CHANNELS 3 Zrotation Yrotation Xrotation
									End Site
									{
										OFFSET 0.000000 0.000000 0.000000
									}
								}
							}
						}
					}
				}
				JOINT RightShoulder
				{
					OFFSET 0.000000 0.000000 0.000000
					CHANNELS 3 Zrotation Yrotation Xrotation
					JOINT RightArm
					{
						OFFSET -3.136600 1.374050 -0.404650
						CHANNELS 3 Zrotation Yrotation Xrotation
						JOINT RightForeArm
						{
							OFFSET -5.241900 -0.000000 -0.000000
							CHANNELS 3 Zrotation Yrotation Xrotation
							JOINT RightHand
							{
								OFFSET -3.444170 -0.000000 -0.000000
								CHANNELS 3 Zrotation Yrotation Xrotation
								JOINT RightFingerBase
								{
									OFFSET 0.000000 0.000000 0.000000
									CHANNELS 3 Zrotation Yrotation Xrotation
									JOINT RightHandIndex1
									{
										OFFSET -0.622530 -0.000000 -0.000000
										CHANNELS 3 Zrotation Yrotation Xrotation
										End Site
										{
											OFFSET 0.000000 0.000000 0.000000
										}
									}
								}
								JOINT RThumb
								{
									OFFSET 0.000000 0.000000 0.000000
									CHANNELS 3 Zrotation Yrotation Xrotation
									End Site
									{
										OFFSET 0.000000 0.000000 0.000000
									}
								}
							}
						}
					}
				}
			}
		}
	}
}
MOTION
Frames: 7
Frame Time: 0.008333
9.255700 17.442010 -23.204366 -3.940622 -11.204662 9.166646 -1.252611 -3.253346 -5.042100 -6.830700 -1.429872 -34.292864 -1.975230 10.110341 20.375554 -1.927605 13.619996 21.487871 0.230600 -3.090900 -8.531800 2.170749 -2.085646 5.244600 15.895644 6.228375 2.973290 0.751288 -8.283644 27.263633 -2.506560 -2.876007 39.097992 -0.333800 -3.712900 10.270200 2.740583 6.152275 -0.118677 0.539768 7.776593 -3.719696 -3.502696 4.525834 -0.696906 -2.540775 -2.470465 -11.084946 7.143530 -3.678556 11.686964 1.939800 -1.403000 6.643900 1.923023 -7.364023 0.306629 -90.501299 20.047753 -10.560730 -0.907393 -2.515931 -0.459931 -0.805822 2.235436 28.658831 25.586688 -9.493573 -5.681700 -7.125000 0.000000 0.000000 0.188400 17.548000 -0.122800 -3.728266 9.130028 0.796553 76.762421 8.843753 29.200643 -44.034975 45.780186 -23.795211 2.213556 0.917979 -4.232911 -28.871908 -30.527944 17.113000 7.125000 0.000000 0.000000 0.238700 -64.665700 -0.113600
9.263768 17.453985 -23.070758 -3.728231 -11.070532 9.021156 -1.254352 -3.241210 -4.931597 -7.233555 -1.436395 -34.287239 -1.911826 10.300496 21.062839 -1.676999 12.818767 21.405731 0.220303 -3.020522 -8.335842 2.133476 -2.014865 5.083131 15.792018 6.054269 2.430817 0.290742 -8.807684 28.561811 -2.397547 -3.904871 39.818920 -0.193581 -2.465343 6.812175 2.490973 6.106714 0.016259 0.521912 7.731558 -3.735195 -3.494769 4.489478 -0.842122 -2.557369 -2.519491 -10.952717 7.191721 -3.748894 11.650136 1.970154 -1.437965 6.611039 1.909631 -7.390226 0.304343 -90.417642 19.923463 -10.507476 -0.851159 -2.592789 -0.460567 -0.779408 2.223768 28.721299 25.336694 -9.506880 -5.622156 -7.125000 0.000000 0.000000 -0.006528 17.561879 0.004167 -3.763399 9.133538 0.796306 77.098534 8.068468 29.120968 -44.405623 46.039569 -24.141321 2.220636 0.954898 -4.499316 -29.612569 -31.230352 17.937974 7.125000 0.000000 0.000000 -0.442608 -65.620641 0.238963
9.271837 17.465961 -22.937151 -3.515840 -10.936403 8.875667 -1.256092 -3.229074 -4.821094 -7.636411 -1.442917 -34.281613 -1.848421 10.490650 21.750124 -1.426393 12.017538 21.323592 0.210006 -2.950144 -8.139885 2.096203 -1.944084 4.921661 15.688393 5.880162 1.888343 -0.169804 -9.331724 29.859989 -2.288534 -4.933735 40.539849 -0.053362 -1.217785 3.354150 2.241364 6.061152 0.151195 0.504055 7.686522 -3.750695 -3.486843 4.453121 -0.987337 -2.573962 -2.568517 -10.820489 7.239912 -3.819233 11.613308 2.000508 -1.472931 6.578178 1.896240 -7.416429 0.302057 -90.333985 19.799173 -10.454222 -0.794925 -2.669647 -0.461203 -0.752994 2.212099 28.783768 25.086700 -9.520187 -5.562612 -7.125000 0.000000 0.000000 -0.201456 17.575757 0.131135 -3.798531 9.137048 0.796060 77.434647 7.293183 29.041294 -44.776272 46.298952 -24.487430 2.227717 0.991816 -4.765722 -30.353230 -31.932759 18.762949 7.125000 0.000000 0.000000 -1.123916 -66.575583 0.591526
9.281577 17.475992 -22.805254 -3.414178 -10.814442 8.727135 -1.258323 -3.212595 -4.711180 -7.915938 -1.462995 -34.185468 -1.780763 10.643469 22.340798 -1.233149 11.343158 21.174085 0.200910 -2.885461 -7.959984 2.049087 -1.858222 4.748372 15.708690 5.747904 1.361789 -0.628490 -9.834477 31.191548 -2.279895 -5.583677 41.293959 -0.028800 -0.141639 0.388777 2.148820 6.032053 0.322188 0.490363 7.663055 -3.757807 -3.523012 4.424965 -1.110622 -2.581349 -2.595444 -10.662230 7.275797 -3.860198 11.549096 2.028014 -1.496059 6.514026 1.884265 -7.442794 0.302316 -90.255523 19.689773 -10.390623 -0.680082 -2.822041 -0.466454 -0.744846 2.192838 28.805910 24.940512 -9.356526 -5.438566 -7.125000 0.000000 0.000000 -0.303679 17.787705 0.195830 -3.826300 9.132643 0.801395 77.715289 6.544883 28.987037 -45.133324 46.541017 -24.812248 2.223598 1.039378 -5.239813 -30.803685 -32.543315 19.368445 7.125000 0.000000 0.000000 -1.448335 -67.363539 0.783416
9.291827 17.485430 -22.673879 -3.346275 -10.696191 8.577675 -1.260704 -3.194793 -4.601446 -8.157864 -1.487206 -34.061725 -1.711808 10.784905 22.902017 -1.057394 10.707452 21.004040 0.192179 -2.822514 -7.784978 1.998970 -1.767763 4.571478 15.766768 5.628404 0.840088 -1.086610 -10.330740 32.533283 -2.301857 -6.118093 42.058187 -0.039500 0.882248 -2.426398 2.104163 6.007973 0.504175 0.477941 7.646163 -3.762363 -3.572625 4.399309 -1.227221 -2.585929 -2.615633 -10.496035 7.307929 -3.892209 11.476535 2.054652 -1.515579 6.440335 1.872723 -7.469208 0.303351 -90.178645 19.584914 -10.323871 -0.547371 -2.997465 -0.473111 -0.742268 2.171261 28.815759 24.825971 -9.138912 -5.294855 -7.125000 0.000000 0.000000 -0.377639 18.060041 0.241540 -3.851824 9.125825 0.808432 77.979020 5.804810 28.940529 -45.486231 46.777802 -25.130575 2.216066 1.090185 -5.777224 -31.165661 -33.125866 19.907026 7.125000 0.000000 0.000000 -1.663947 -68.100586 0.926322
9.301942 17.494976 -22.543207 -3.239720 -10.608505 8.422984 -1.274031 -3.165666 -4.488599 -8.432405 -1.503304 -33.902810 -1.650311 10.903234 23.391587 -0.938329 10.208786 20.752558 0.188553 -2.796463 -7.712573 1.944288 -1.700631 4.384029 15.764032 5.574970 0.375795 -1.637866 -10.851373 33.883535 -2.208096 -7.296473 42.646054 -0.035604 0.905153 -2.489403 2.018646 5.965891 0.659662 0.465148 7.602763 -3.747950 -3.615926 4.362948 -1.225262 -2.530727 -2.604065 -10.475477 7.326349 -3.888754 11.414543 2.055915 -1.511726 6.395788 1.858808 -7.498641 0.307937 -90.085136 19.288411 -10.332941 -0.455463 -3.109172 -0.478889 -0.735454 2.158091 28.794151 24.713122 -9.011839 -5.201084 -7.125000 0.000000 0.000000 -0.457490 18.220546 0.291376 -3.868984 9.122193 0.814540 78.238141 5.270141 28.855960 -45.674332 46.916991 -25.288952 2.199254 1.119147 -6.184540 -31.013607 -33.336813 19.906469 7.125000 0.000000 0.000000 -1.310465 -68.292960 0.737959
9.311939 17.504618 -22.413151 -3.099258 -10.547630 8.263705 -1.296962 -3.126604 -4.373021 -8.735555 -1.512286 -33.713043 -1.595357 11.001295 23.818307 -0.868991 9.830330 20.429638 0.189404 -2.802775 -7.730167 1.885601 -1.653962 4.187320 15.707952 5.579489 -0.038139 -2.270822 -11.393381 35.241259 -2.012824 -9.039733 43.079219 -0.018905 0.050004 -0.138223 1.897288 5.908017 0.791904 0.452031 7.536111 -3.716896 -3.653692 4.317196 -1.119306 -2.423086 -2.564641 -10.582670 7.332741 -3.854188 11.361821 2.034918 -1.487371 6.376805 1.842812 -7.530722 0.315638 -89.977038 18.823801 -10.408524 -0.399346 -3.164987 -0.483896 -0.724924 2.152293 28.744948 24.601756 -8.964189 -5.151121 -7.125000 0.000000 0.000000 -0.542508 18.282955 0.344831 -3.878808 9.121355 0.819833 78.493218 4.915649 28.738002 -45.717867 46.970570 -25.307023 2.174301 1.128947 -6.477740 -30.410650 -33.221790 19.432983 7.125000 0.000000 0.000000 -0.457778 -68.007552 0.259011
